<?xml version="1.0" encoding="UTF-8"?><svg id="Layer_1" xmlns="http://www.w3.org/2000/svg" viewBox="0 0 24 22.47"><g id="Artwork_3"><path d="M22.83,13.98s.03-.03.04-.04c.03-.03.06-.06.09-.09.02-.02.04-.04.06-.06.02-.02.04-.04.06-.06.02-.02.04-.04.06-.06.01-.02.03-.03.04-.05.02-.02.04-.05.06-.07,0,0,.01-.02.02-.02.96-1.24,1.01-3.02.03-4.33,0-.01-.4-3.1-.4-3.1l-3-.87h0c-1.75.29-3.54.21-5.26-.24l-2.67-.69V0h-5.54v9.62H0l2.01,2.01c.77.77,1.24,1.8,1.31,2.89h0s3.09,1.52,3.09,1.52c0-1.09.89-1.98,1.98-1.98.71,0,1.33.37,1.68.94l3.97,6.38v.03l3.16,1.07c-.62-.83-.85-1.93-.54-2.99.16-.54.45-1.02.81-1.4h0s.57-.49.57-.49c0,0,3.07-2.31,4.51-3.39.04-.03.09-.07.13-.1.01-.01.03-.02.04-.03.03-.02.06-.05.08-.07Z"/></g></svg>